<svg xmlns="http://www.w3.org/2000/svg" width="760" height="400" viewBox="0 0 760 400" font-family="-apple-system,Segoe UI,Roboto,sans-serif">
<rect width="760" height="400" fill="#ffffff"/>
<text x="60" y="26" font-size="17" font-weight="700" fill="#111">Encode throughput - single thread (higher is better)</text>
<text x="60" y="44" font-size="12" fill="#666">Same setup. in-tree deflate vs OpenEXR's libdeflate / OpenJPH backends.</text>
<line x1="60" y1="330.0" x2="742" y2="330.0" stroke="#eee" stroke-width="1"/>
<text x="52" y="334.0" font-size="11" fill="#888" text-anchor="end">0</text>
<line x1="60" y1="276.8" x2="742" y2="276.8" stroke="#eee" stroke-width="1"/>
<text x="52" y="280.8" font-size="11" fill="#888" text-anchor="end">8</text>
<line x1="60" y1="223.6" x2="742" y2="223.6" stroke="#eee" stroke-width="1"/>
<text x="52" y="227.6" font-size="11" fill="#888" text-anchor="end">16</text>
<line x1="60" y1="170.4" x2="742" y2="170.4" stroke="#eee" stroke-width="1"/>
<text x="52" y="174.4" font-size="11" fill="#888" text-anchor="end">24</text>
<line x1="60" y1="117.2" x2="742" y2="117.2" stroke="#eee" stroke-width="1"/>
<text x="52" y="121.2" font-size="11" fill="#888" text-anchor="end">32</text>
<line x1="60" y1="64.0" x2="742" y2="64.0" stroke="#eee" stroke-width="1"/>
<text x="52" y="68.0" font-size="11" fill="#888" text-anchor="end">40</text>
<text x="16" y="197" font-size="12" fill="#666" transform="rotate(-90 16 197)" text-anchor="middle">megapixels / s</text>
<rect x="71.9" y="77.3" width="28.7" height="252.7" fill="#2563eb" rx="2"/>
<text x="86.3" y="73.3" font-size="9.5" fill="#444" text-anchor="middle">38</text>
<rect x="102.6" y="111.2" width="28.7" height="218.8" fill="#f59e0b" rx="2"/>
<text x="117.0" y="107.2" font-size="9.5" fill="#444" text-anchor="middle">32.9</text>
<text x="102.6" y="348" font-size="12" fill="#333" text-anchor="middle">rle</text>
<rect x="157.2" y="276.1" width="28.7" height="53.9" fill="#2563eb" rx="2"/>
<text x="171.5" y="272.1" font-size="9.5" fill="#444" text-anchor="middle">8.1</text>
<rect x="187.9" y="257.5" width="28.7" height="72.5" fill="#f59e0b" rx="2"/>
<text x="202.2" y="253.5" font-size="9.5" fill="#444" text-anchor="middle">10.9</text>
<text x="187.9" y="348" font-size="12" fill="#333" text-anchor="middle">zips</text>
<rect x="242.4" y="280.8" width="28.7" height="49.2" fill="#2563eb" rx="2"/>
<text x="256.8" y="276.8" font-size="9.5" fill="#444" text-anchor="middle">7.4</text>
<rect x="273.1" y="258.2" width="28.7" height="71.8" fill="#f59e0b" rx="2"/>
<text x="287.5" y="254.2" font-size="9.5" fill="#444" text-anchor="middle">10.8</text>
<text x="273.1" y="348" font-size="12" fill="#333" text-anchor="middle">zip</text>
<rect x="327.7" y="220.3" width="28.7" height="109.7" fill="#2563eb" rx="2"/>
<text x="342.0" y="216.3" font-size="9.5" fill="#444" text-anchor="middle">16.5</text>
<rect x="358.4" y="211.0" width="28.7" height="119.0" fill="#f59e0b" rx="2"/>
<text x="372.7" y="207.0" font-size="9.5" fill="#444" text-anchor="middle">17.9</text>
<text x="358.4" y="348" font-size="12" fill="#333" text-anchor="middle">piz</text>
<rect x="412.9" y="282.8" width="28.7" height="47.2" fill="#2563eb" rx="2"/>
<text x="427.3" y="278.8" font-size="9.5" fill="#444" text-anchor="middle">7.1</text>
<rect x="443.6" y="248.9" width="28.7" height="81.1" fill="#f59e0b" rx="2"/>
<text x="458.0" y="244.9" font-size="9.5" fill="#444" text-anchor="middle">12.2</text>
<text x="443.6" y="348" font-size="12" fill="#333" text-anchor="middle">pxr24</text>
<rect x="498.2" y="169.7" width="28.7" height="160.3" fill="#2563eb" rx="2"/>
<text x="512.5" y="165.7" font-size="9.5" fill="#444" text-anchor="middle">24.1</text>
<rect x="528.9" y="171.1" width="28.7" height="158.9" fill="#f59e0b" rx="2"/>
<text x="543.2" y="167.1" font-size="9.5" fill="#444" text-anchor="middle">23.9</text>
<text x="528.9" y="348" font-size="12" fill="#333" text-anchor="middle">b44</text>
<rect x="583.4" y="296.8" width="28.7" height="33.2" fill="#2563eb" rx="2"/>
<text x="597.8" y="292.8" font-size="9.5" fill="#444" text-anchor="middle">5</text>
<rect x="614.1" y="185.7" width="28.7" height="144.3" fill="#f59e0b" rx="2"/>
<text x="628.5" y="181.7" font-size="9.5" fill="#444" text-anchor="middle">21.7</text>
<text x="614.1" y="348" font-size="12" fill="#333" text-anchor="middle">htj2k256</text>
<rect x="668.7" y="288.8" width="28.7" height="41.2" fill="#2563eb" rx="2"/>
<text x="683.0" y="284.8" font-size="9.5" fill="#444" text-anchor="middle">6.2</text>
<rect x="699.4" y="183.0" width="28.7" height="147.0" fill="#f59e0b" rx="2"/>
<text x="713.7" y="179.0" font-size="9.5" fill="#444" text-anchor="middle">22.1</text>
<text x="699.4" y="348" font-size="12" fill="#333" text-anchor="middle">htj2k32</text>
<line x1="60" y1="330.0" x2="742" y2="330.0" stroke="#bbb" stroke-width="1"/>
<rect x="60" y="370" width="12" height="12" fill="#2563eb" rx="2"/>
<text x="77" y="380" font-size="12" fill="#333">tinyexr (in-tree)</text>
<rect x="204.4" y="370" width="12" height="12" fill="#f59e0b" rx="2"/>
<text x="221.4" y="380" font-size="12" fill="#333">OpenEXR</text>
</svg>