<svg xmlns="http://www.w3.org/2000/svg" width="620" height="400" viewBox="0 0 620 400" font-family="-apple-system,Segoe UI,Roboto,sans-serif">
<rect width="620" height="400" fill="#ffffff"/>
<text x="60" y="26" font-size="17" font-weight="700" fill="#111">Decode with optional libdeflate backend (LIBDEFLATE=1)</text>
<text x="60" y="44" font-size="12" fill="#666">Opting into the vendored libdeflate matches OpenEXR's backend; tinyexr then meets or beats it.</text>
<line x1="60" y1="330.0" x2="602" y2="330.0" stroke="#eee" stroke-width="1"/>
<text x="52" y="334.0" font-size="11" fill="#888" text-anchor="end">0</text>
<line x1="60" y1="276.8" x2="602" y2="276.8" stroke="#eee" stroke-width="1"/>
<text x="52" y="280.8" font-size="11" fill="#888" text-anchor="end">14</text>
<line x1="60" y1="223.6" x2="602" y2="223.6" stroke="#eee" stroke-width="1"/>
<text x="52" y="227.6" font-size="11" fill="#888" text-anchor="end">28</text>
<line x1="60" y1="170.4" x2="602" y2="170.4" stroke="#eee" stroke-width="1"/>
<text x="52" y="174.4" font-size="11" fill="#888" text-anchor="end">42</text>
<line x1="60" y1="117.2" x2="602" y2="117.2" stroke="#eee" stroke-width="1"/>
<text x="52" y="121.2" font-size="11" fill="#888" text-anchor="end">56</text>
<line x1="60" y1="64.0" x2="602" y2="64.0" stroke="#eee" stroke-width="1"/>
<text x="52" y="68.0" font-size="11" fill="#888" text-anchor="end">70</text>
<text x="16" y="197" font-size="12" fill="#666" transform="rotate(-90 16 197)" text-anchor="middle">megapixels / s</text>
<rect x="85.3" y="192.4" width="41.4" height="137.6" fill="#2563eb" rx="2"/>
<text x="106.0" y="188.4" font-size="9.5" fill="#444" text-anchor="middle">36.2</text>
<rect x="128.7" y="98.6" width="41.4" height="231.4" fill="#16a34a" rx="2"/>
<text x="149.3" y="94.6" font-size="9.5" fill="#444" text-anchor="middle">60.9</text>
<rect x="172.0" y="161.3" width="41.4" height="168.7" fill="#f59e0b" rx="2"/>
<text x="192.7" y="157.3" font-size="9.5" fill="#444" text-anchor="middle">44.4</text>
<text x="150.3" y="348" font-size="12" fill="#333" text-anchor="middle">zip</text>
<rect x="266.0" y="264.6" width="41.4" height="65.4" fill="#2563eb" rx="2"/>
<text x="286.6" y="260.6" font-size="9.5" fill="#444" text-anchor="middle">17.2</text>
<rect x="309.3" y="159.0" width="41.4" height="171.0" fill="#16a34a" rx="2"/>
<text x="330.0" y="155.0" font-size="9.5" fill="#444" text-anchor="middle">45</text>
<rect x="352.7" y="197.4" width="41.4" height="132.6" fill="#f59e0b" rx="2"/>
<text x="373.4" y="193.4" font-size="9.5" fill="#444" text-anchor="middle">34.9</text>
<text x="331.0" y="348" font-size="12" fill="#333" text-anchor="middle">zips</text>
<rect x="446.6" y="192.8" width="41.4" height="137.2" fill="#2563eb" rx="2"/>
<text x="467.3" y="188.8" font-size="9.5" fill="#444" text-anchor="middle">36.1</text>
<rect x="490.0" y="103.1" width="41.4" height="226.9" fill="#16a34a" rx="2"/>
<text x="510.7" y="99.1" font-size="9.5" fill="#444" text-anchor="middle">59.7</text>
<rect x="533.3" y="99.0" width="41.4" height="231.0" fill="#f59e0b" rx="2"/>
<text x="554.0" y="95.0" font-size="9.5" fill="#444" text-anchor="middle">60.8</text>
<text x="511.7" y="348" font-size="12" fill="#333" text-anchor="middle">pxr24</text>
<line x1="60" y1="330.0" x2="602" y2="330.0" stroke="#bbb" stroke-width="1"/>
<rect x="60" y="370" width="12" height="12" fill="#2563eb" rx="2"/>
<text x="77" y="380" font-size="12" fill="#333">tinyexr (in-tree)</text>
<rect x="204.4" y="370" width="12" height="12" fill="#16a34a" rx="2"/>
<text x="221.4" y="380" font-size="12" fill="#333">tinyexr (libdeflate)</text>
<rect x="370.4" y="370" width="12" height="12" fill="#f59e0b" rx="2"/>
<text x="387.4" y="380" font-size="12" fill="#333">OpenEXR</text>
</svg>