<svg xmlns="http://www.w3.org/2000/svg" width="760" height="400" viewBox="0 0 760 400" font-family="-apple-system,Segoe UI,Roboto,sans-serif">
<rect width="760" height="400" fill="#fff"/>
<text x="60" y="26" font-size="17" font-weight="700" fill="#111">Decode throughput - single thread (higher is better)</text>
<text x="60" y="44" font-size="12" fill="#666">Apple M1 (4 P-core + 4 E-core), NEON auto-dispatch; asakusa.exr 660x440, in-memory, single thread.</text>
<line x1="60" y1="328.0" x2="742" y2="328.0" stroke="#eee"/>
<text x="52" y="332.0" font-size="11" fill="#888" text-anchor="end">0</text>
<line x1="60" y1="275.2" x2="742" y2="275.2" stroke="#eee"/>
<text x="52" y="279.2" font-size="11" fill="#888" text-anchor="end">70</text>
<line x1="60" y1="222.4" x2="742" y2="222.4" stroke="#eee"/>
<text x="52" y="226.4" font-size="11" fill="#888" text-anchor="end">140</text>
<line x1="60" y1="169.6" x2="742" y2="169.6" stroke="#eee"/>
<text x="52" y="173.6" font-size="11" fill="#888" text-anchor="end">210</text>
<line x1="60" y1="116.8" x2="742" y2="116.8" stroke="#eee"/>
<text x="52" y="120.8" font-size="11" fill="#888" text-anchor="end">280</text>
<line x1="60" y1="64.0" x2="742" y2="64.0" stroke="#eee"/>
<text x="52" y="68.0" font-size="11" fill="#888" text-anchor="end">350</text>
<text x="16" y="196" font-size="12" fill="#666" transform="rotate(-90 16 196)" text-anchor="middle">megapixels / s</text>
<rect x="71.1" y="205.1" width="29.5" height="122.9" fill="#2563eb" rx="2"/>
<text x="85.8" y="201.1" font-size="9" fill="#444" text-anchor="middle">163</text>
<rect x="102.6" y="260.6" width="29.5" height="67.4" fill="#f59e0b" rx="2"/>
<text x="117.3" y="256.6" font-size="9" fill="#444" text-anchor="middle">89.3</text>
<text x="102.6" y="346" font-size="12" fill="#333" text-anchor="middle">rle</text>
<rect x="156.3" y="311.3" width="29.5" height="16.7" fill="#2563eb" rx="2"/>
<text x="171.1" y="307.3" font-size="9" fill="#444" text-anchor="middle">22.2</text>
<rect x="187.9" y="282.3" width="29.5" height="45.7" fill="#f59e0b" rx="2"/>
<text x="202.7" y="278.3" font-size="9" fill="#444" text-anchor="middle">60.6</text>
<text x="187.9" y="346" font-size="12" fill="#333" text-anchor="middle">zips</text>
<rect x="241.6" y="295.9" width="29.5" height="32.1" fill="#2563eb" rx="2"/>
<text x="256.4" y="291.9" font-size="9" fill="#444" text-anchor="middle">42.6</text>
<rect x="273.1" y="267.5" width="29.5" height="60.5" fill="#f59e0b" rx="2"/>
<text x="287.9" y="263.5" font-size="9" fill="#444" text-anchor="middle">80.2</text>
<text x="273.1" y="346" font-size="12" fill="#333" text-anchor="middle">zip</text>
<rect x="326.8" y="306.7" width="29.5" height="21.3" fill="#2563eb" rx="2"/>
<text x="341.6" y="302.7" font-size="9" fill="#444" text-anchor="middle">28.2</text>
<rect x="358.4" y="278.1" width="29.5" height="49.9" fill="#f59e0b" rx="2"/>
<text x="373.1" y="274.1" font-size="9" fill="#444" text-anchor="middle">66.1</text>
<text x="358.4" y="346" font-size="12" fill="#333" text-anchor="middle">piz</text>
<rect x="412.1" y="295.0" width="29.5" height="33.0" fill="#2563eb" rx="2"/>
<text x="426.9" y="291.0" font-size="9" fill="#444" text-anchor="middle">43.7</text>
<rect x="443.6" y="266.1" width="29.5" height="61.9" fill="#f59e0b" rx="2"/>
<text x="458.4" y="262.1" font-size="9" fill="#444" text-anchor="middle">82</text>
<text x="443.6" y="346" font-size="12" fill="#333" text-anchor="middle">pxr24</text>
<rect x="497.3" y="88.1" width="29.5" height="239.9" fill="#2563eb" rx="2"/>
<text x="512.0" y="84.1" font-size="9" fill="#444" text-anchor="middle">318</text>
<rect x="528.9" y="164.3" width="29.5" height="163.7" fill="#f59e0b" rx="2"/>
<text x="543.6" y="160.3" font-size="9" fill="#444" text-anchor="middle">217</text>
<text x="528.9" y="346" font-size="12" fill="#333" text-anchor="middle">b44</text>
<rect x="582.6" y="306.5" width="29.5" height="21.5" fill="#2563eb" rx="2"/>
<text x="597.4" y="302.5" font-size="9" fill="#444" text-anchor="middle">28.5</text>
<rect x="614.1" y="305.1" width="29.5" height="22.9" fill="#f59e0b" rx="2"/>
<text x="628.9" y="301.1" font-size="9" fill="#444" text-anchor="middle">30.3</text>
<text x="614.1" y="346" font-size="12" fill="#333" text-anchor="middle">htj2k256</text>
<rect x="667.8" y="307.9" width="29.5" height="20.1" fill="#2563eb" rx="2"/>
<text x="682.5" y="303.9" font-size="9" fill="#444" text-anchor="middle">26.7</text>
<rect x="699.4" y="305.8" width="29.5" height="22.2" fill="#f59e0b" rx="2"/>
<text x="714.1" y="301.8" font-size="9" fill="#444" text-anchor="middle">29.4</text>
<text x="699.4" y="346" font-size="12" fill="#333" text-anchor="middle">htj2k32</text>
<line x1="60" y1="328.0" x2="742" y2="328.0" stroke="#bbb"/>
<rect x="60" y="370" width="12" height="12" fill="#2563eb" rx="2"/>
<text x="77" y="380" font-size="12" fill="#333">tinyexr (in-tree)</text>
<rect x="204.4" y="370" width="12" height="12" fill="#f59e0b" rx="2"/>
<text x="221.4" y="380" font-size="12" fill="#333">OpenEXR</text>
</svg>
