<svg xmlns="http://www.w3.org/2000/svg" width="760" height="400" viewBox="0 0 760 400" font-family="-apple-system,Segoe UI,Roboto,sans-serif">
<rect width="760" height="400" fill="#fff"/>
<text x="60" y="26" font-size="17" font-weight="700" fill="#111">Encode throughput - single thread (higher is better)</text>
<text x="60" y="44" font-size="12" fill="#666">Same setup. in-tree deflate vs OpenEXR's libdeflate / OpenJPH backends.</text>
<line x1="60" y1="328.0" x2="742" y2="328.0" stroke="#eee"/>
<text x="52" y="332.0" font-size="11" fill="#888" text-anchor="end">0</text>
<line x1="60" y1="275.2" x2="742" y2="275.2" stroke="#eee"/>
<text x="52" y="279.2" font-size="11" fill="#888" text-anchor="end">12</text>
<line x1="60" y1="222.4" x2="742" y2="222.4" stroke="#eee"/>
<text x="52" y="226.4" font-size="11" fill="#888" text-anchor="end">24</text>
<line x1="60" y1="169.6" x2="742" y2="169.6" stroke="#eee"/>
<text x="52" y="173.6" font-size="11" fill="#888" text-anchor="end">36</text>
<line x1="60" y1="116.8" x2="742" y2="116.8" stroke="#eee"/>
<text x="52" y="120.8" font-size="11" fill="#888" text-anchor="end">48</text>
<line x1="60" y1="64.0" x2="742" y2="64.0" stroke="#eee"/>
<text x="52" y="68.0" font-size="11" fill="#888" text-anchor="end">60</text>
<text x="16" y="196" font-size="12" fill="#666" transform="rotate(-90 16 196)" text-anchor="middle">megapixels / s</text>
<rect x="71.1" y="85.6" width="29.5" height="242.4" fill="#2563eb" rx="2"/>
<text x="85.9" y="81.6" font-size="9" fill="#444" text-anchor="middle">55.1</text>
<rect x="102.6" y="124.3" width="29.5" height="203.7" fill="#f59e0b" rx="2"/>
<text x="117.4" y="120.3" font-size="9" fill="#444" text-anchor="middle">46.3</text>
<text x="102.6" y="346" font-size="12" fill="#333" text-anchor="middle">rle</text>
<rect x="156.3" y="282.7" width="29.5" height="45.3" fill="#2563eb" rx="2"/>
<text x="171.1" y="278.7" font-size="9" fill="#444" text-anchor="middle">10.3</text>
<rect x="187.9" y="259.8" width="29.5" height="68.2" fill="#f59e0b" rx="2"/>
<text x="202.6" y="255.8" font-size="9" fill="#444" text-anchor="middle">15.5</text>
<text x="187.9" y="346" font-size="12" fill="#333" text-anchor="middle">zips</text>
<rect x="241.6" y="285.8" width="29.5" height="42.2" fill="#2563eb" rx="2"/>
<text x="256.4" y="281.8" font-size="9" fill="#444" text-anchor="middle">9.6</text>
<rect x="273.1" y="263.3" width="29.5" height="64.7" fill="#f59e0b" rx="2"/>
<text x="287.9" y="259.3" font-size="9" fill="#444" text-anchor="middle">14.7</text>
<text x="273.1" y="346" font-size="12" fill="#333" text-anchor="middle">zip</text>
<rect x="326.8" y="224.2" width="29.5" height="103.8" fill="#2563eb" rx="2"/>
<text x="341.6" y="220.2" font-size="9" fill="#444" text-anchor="middle">23.6</text>
<rect x="358.4" y="216.2" width="29.5" height="111.8" fill="#f59e0b" rx="2"/>
<text x="373.1" y="212.2" font-size="9" fill="#444" text-anchor="middle">25.4</text>
<text x="358.4" y="346" font-size="12" fill="#333" text-anchor="middle">piz</text>
<rect x="412.1" y="287.5" width="29.5" height="40.5" fill="#2563eb" rx="2"/>
<text x="426.9" y="283.5" font-size="9" fill="#444" text-anchor="middle">9.2</text>
<rect x="443.6" y="255.8" width="29.5" height="72.2" fill="#f59e0b" rx="2"/>
<text x="458.4" y="251.8" font-size="9" fill="#444" text-anchor="middle">16.4</text>
<text x="443.6" y="346" font-size="12" fill="#333" text-anchor="middle">pxr24</text>
<rect x="497.3" y="188.5" width="29.5" height="139.5" fill="#2563eb" rx="2"/>
<text x="512.1" y="184.5" font-size="9" fill="#444" text-anchor="middle">31.7</text>
<rect x="528.9" y="174.9" width="29.5" height="153.1" fill="#f59e0b" rx="2"/>
<text x="543.6" y="170.9" font-size="9" fill="#444" text-anchor="middle">34.8</text>
<text x="528.9" y="346" font-size="12" fill="#333" text-anchor="middle">b44</text>
<rect x="582.6" y="295.0" width="29.5" height="33.0" fill="#2563eb" rx="2"/>
<text x="597.4" y="291.0" font-size="9" fill="#444" text-anchor="middle">7.5</text>
<rect x="614.1" y="181.0" width="29.5" height="147.0" fill="#f59e0b" rx="2"/>
<text x="628.9" y="177.0" font-size="9" fill="#444" text-anchor="middle">33.4</text>
<text x="614.1" y="346" font-size="12" fill="#333" text-anchor="middle">htj2k256</text>
<rect x="667.8" y="291.5" width="29.5" height="36.5" fill="#2563eb" rx="2"/>
<text x="682.6" y="287.5" font-size="9" fill="#444" text-anchor="middle">8.3</text>
<rect x="699.4" y="189.8" width="29.5" height="138.2" fill="#f59e0b" rx="2"/>
<text x="714.1" y="185.8" font-size="9" fill="#444" text-anchor="middle">31.4</text>
<text x="699.4" y="346" font-size="12" fill="#333" text-anchor="middle">htj2k32</text>
<line x1="60" y1="328.0" x2="742" y2="328.0" stroke="#bbb"/>
<rect x="60" y="370" width="12" height="12" fill="#2563eb" rx="2"/>
<text x="77" y="380" font-size="12" fill="#333">tinyexr (in-tree)</text>
<rect x="204.4" y="370" width="12" height="12" fill="#f59e0b" rx="2"/>
<text x="221.4" y="380" font-size="12" fill="#333">OpenEXR</text>
</svg>